<mxfile host="app.diagrams.net" agent="Mozilla/5.0 (Windows NT 10.0; Win64; x64) AppleWebKit/537.36 (KHTML, like Gecko) Chrome/139.0.0.0 Safari/537.36" version="28.2.1">
  <diagram id="O5uoQnVYmqqMnr7a0Guu" name="ページ1">
    <mxGraphModel dx="383" dy="464" grid="1" gridSize="10" guides="1" tooltips="1" connect="1" arrows="1" fold="1" page="1" pageScale="1" pageWidth="827" pageHeight="1169" math="0" shadow="0">
      <root>
        <mxCell id="0" />
        <mxCell id="1" parent="0" />
        <mxCell id="ccaAdkvIlF6hYUP8qOqt-2" value="web学術論文" style="text;html=1;align=center;verticalAlign=middle;resizable=0;points=[];autosize=1;strokeColor=none;fillColor=none;" vertex="1" parent="1">
          <mxGeometry x="77.5" y="80" width="90" height="30" as="geometry" />
        </mxCell>
        <mxCell id="ccaAdkvIlF6hYUP8qOqt-7" value="ユーザ" style="shape=umlActor;verticalLabelPosition=bottom;verticalAlign=top;html=1;outlineConnect=0;" vertex="1" parent="1">
          <mxGeometry x="100" y="150" width="45" height="80" as="geometry" />
        </mxCell>
        <mxCell id="ccaAdkvIlF6hYUP8qOqt-14" value="" style="group" vertex="1" connectable="0" parent="1">
          <mxGeometry x="220" y="80" width="240" height="310" as="geometry" />
        </mxCell>
        <mxCell id="ccaAdkvIlF6hYUP8qOqt-8" value="" style="rounded=0;whiteSpace=wrap;html=1;" vertex="1" parent="ccaAdkvIlF6hYUP8qOqt-14">
          <mxGeometry width="240" height="310" as="geometry" />
        </mxCell>
        <mxCell id="ccaAdkvIlF6hYUP8qOqt-9" value="システム内部" style="text;html=1;align=center;verticalAlign=middle;whiteSpace=wrap;rounded=0;" vertex="1" parent="ccaAdkvIlF6hYUP8qOqt-14">
          <mxGeometry x="75" y="18" width="90" height="30" as="geometry" />
        </mxCell>
        <mxCell id="ccaAdkvIlF6hYUP8qOqt-10" value="学生情報を登録する" style="ellipse;whiteSpace=wrap;html=1;" vertex="1" parent="ccaAdkvIlF6hYUP8qOqt-14">
          <mxGeometry x="60" y="60" width="120" height="80" as="geometry" />
        </mxCell>
        <mxCell id="ccaAdkvIlF6hYUP8qOqt-12" value="学術論文を登録する" style="ellipse;whiteSpace=wrap;html=1;" vertex="1" parent="ccaAdkvIlF6hYUP8qOqt-14">
          <mxGeometry x="60" y="180" width="120" height="80" as="geometry" />
        </mxCell>
        <mxCell id="ccaAdkvIlF6hYUP8qOqt-15" value="" style="endArrow=none;html=1;rounded=0;entryX=0;entryY=0.375;entryDx=0;entryDy=0;entryPerimeter=0;" edge="1" parent="1" target="ccaAdkvIlF6hYUP8qOqt-10">
          <mxGeometry width="50" height="50" relative="1" as="geometry">
            <mxPoint x="150" y="190" as="sourcePoint" />
            <mxPoint x="210" y="210" as="targetPoint" />
            <Array as="points" />
          </mxGeometry>
        </mxCell>
        <mxCell id="ccaAdkvIlF6hYUP8qOqt-16" value="" style="endArrow=none;html=1;rounded=0;entryX=0;entryY=0.5;entryDx=0;entryDy=0;" edge="1" parent="1" target="ccaAdkvIlF6hYUP8qOqt-12">
          <mxGeometry width="50" height="50" relative="1" as="geometry">
            <mxPoint x="150" y="210" as="sourcePoint" />
            <mxPoint x="210" y="210" as="targetPoint" />
          </mxGeometry>
        </mxCell>
      </root>
    </mxGraphModel>
  </diagram>
</mxfile>
